<svg data-v-fde0c5aa="" xmlns="http://www.w3.org/2000/svg" viewBox="0 0 300 300" class="iconLeftSlogan"><!----><defs data-v-fde0c5aa=""><!----></defs><rect data-v-fde0c5aa="" fill="transparent" x="0" y="0" width="300px" height="300px" class="logo-background-square"></rect><defs data-v-fde0c5aa=""><!----></defs><g data-v-fde0c5aa="" id="20aed084-4ae8-4947-a0c7-3c8b8feaa6e4" fill="#000000" transform="matrix(2.826774584040677,0,0,2.826774584040677,124.1734864263034,115.61906853869358)"><path d="M1.44 7.70C1.44 6.47 1.82 5.45 2.57 4.63C3.32 3.82 4.26 3.42 5.39 3.42C6.67 3.42 7.72 3.85 8.54 4.72L8.54 3.74C8.12 3.36 7.67 3.10 7.18 2.93C6.70 2.77 6.10 2.69 5.39 2.69C4.03 2.69 2.89 3.16 1.99 4.10C1.08 5.04 0.63 6.24 0.63 7.70C0.63 9.16 1.08 10.36 1.99 11.30C2.89 12.24 4.03 12.71 5.39 12.71C6.10 12.71 6.70 12.63 7.18 12.47C7.67 12.30 8.12 12.04 8.54 11.66L8.54 10.68C7.72 11.55 6.67 11.98 5.39 11.98C4.26 11.98 3.32 11.58 2.57 10.77C1.82 9.95 1.44 8.93 1.44 7.70ZM10.15 9.38C10.15 10.33 10.45 11.13 11.06 11.76C11.67 12.39 12.42 12.71 13.33 12.71C14.23 12.71 14.99 12.39 15.60 11.76C16.20 11.13 16.51 10.33 16.51 9.38C16.51 8.43 16.20 7.63 15.60 7.00C14.99 6.37 14.23 6.05 13.33 6.05C12.42 6.05 11.67 6.37 11.06 7.00C10.45 7.63 10.15 8.43 10.15 9.38ZM10.85 9.38C10.85 8.62 11.07 7.99 11.52 7.48C11.97 6.97 12.57 6.72 13.33 6.72C14.08 6.72 14.69 6.97 15.13 7.48C15.58 7.99 15.81 8.62 15.81 9.38C15.81 10.14 15.58 10.77 15.13 11.28C14.69 11.79 14.08 12.04 13.33 12.04C12.57 12.04 11.97 11.79 11.52 11.28C11.07 10.77 10.85 10.14 10.85 9.38ZM17.14 6.16L20.08 12.95L23.02 6.16L22.20 6.16L20.08 11.16L17.95 6.16ZM24.21 3.29C24.21 3.44 24.26 3.57 24.36 3.67C24.46 3.77 24.59 3.82 24.74 3.82C24.89 3.82 25.01 3.77 25.12 3.67C25.22 3.57 25.27 3.44 25.27 3.29C25.27 3.14 25.22 3.01 25.12 2.91C25.01 2.81 24.89 2.76 24.74 2.76C24.59 2.76 24.46 2.81 24.36 2.91C24.26 3.01 24.21 3.14 24.21 3.29ZM24.39 6.16L24.39 12.60L25.09 12.60L25.09 6.16ZM26.95 9.38C26.95 10.39 27.25 11.20 27.84 11.80C28.43 12.41 29.18 12.71 30.07 12.71C30.63 12.71 31.12 12.58 31.55 12.31C31.97 12.04 32.31 11.66 32.55 11.19L32.55 12.60L33.25 12.60L33.25 1.68L32.55 1.68L32.55 7.57C32.31 7.10 31.97 6.72 31.55 6.45C31.12 6.18 30.63 6.05 30.07 6.05C29.18 6.05 28.43 6.35 27.84 6.96C27.25 7.56 26.95 8.37 26.95 9.38ZM27.66 9.38C27.66 8.53 27.89 7.88 28.35 7.43C28.81 6.97 29.40 6.75 30.14 6.75C30.77 6.75 31.33 6.98 31.82 7.45C32.30 7.91 32.55 8.56 32.55 9.38C32.55 10.20 32.30 10.85 31.82 11.31C31.33 11.78 30.77 12.01 30.14 12.01C29.40 12.01 28.81 11.79 28.35 11.33C27.89 10.88 27.66 10.23 27.66 9.38ZM35.42 3.29C35.42 3.44 35.47 3.57 35.57 3.67C35.68 3.77 35.80 3.82 35.95 3.82C36.10 3.82 36.23 3.77 36.33 3.67C36.43 3.57 36.48 3.44 36.48 3.29C36.48 3.14 36.43 3.01 36.33 2.91C36.23 2.81 36.10 2.76 35.95 2.76C35.80 2.76 35.68 2.81 35.57 2.91C35.47 3.01 35.42 3.14 35.42 3.29ZM35.60 6.16L35.60 12.60L36.30 12.60L36.30 6.16ZM41.34 2.72L41.75 2.13C41.47 1.75 41.06 1.57 40.52 1.57C39.96 1.57 39.54 1.77 39.27 2.18C39.00 2.58 38.86 3.12 38.86 3.78L38.86 6.16L38.23 6.16L38.23 6.86L38.86 6.86L38.86 12.60L39.56 12.60L39.56 6.86L41.24 6.86L41.24 6.16L39.56 6.16L39.56 3.92C39.56 3.41 39.63 3.01 39.77 2.72C39.91 2.44 40.16 2.30 40.52 2.30C40.84 2.30 41.12 2.44 41.34 2.72ZM41.89 6.16L44.60 12.26L43.08 15.68L43.85 15.68L48.05 6.16L47.24 6.16L44.98 11.44L42.69 6.16Z"></path></g><defs data-v-fde0c5aa=""><linearGradient data-v-fde0c5aa="" gradientTransform="rotate(25)" id="335012cf-df60-4b8f-96b8-5fc9aa9c9b35" x1="0%" y1="0%" x2="100%" y2="0%"><stop data-v-fde0c5aa="" offset="0%" stop-color="#41E296" stop-opacity="1"></stop><stop data-v-fde0c5aa="" offset="100%" stop-color="#00C4EE" stop-opacity="1"></stop></linearGradient></defs><g data-v-fde0c5aa="" id="1f4694a1-5d66-4152-af29-8d8059790b4d" stroke="none" fill="url(#335012cf-df60-4b8f-96b8-5fc9aa9c9b35)" transform="matrix(0.9119293430412647,0,0,0.9119293430412647,30.880707439270946,104.37174591261864)"><circle cx="41.031" cy="44.822" r="2.644"></circle><circle cx="22.611" cy="55.954" r="2.645"></circle><circle cx="77.39" cy="43.93" r="2.644"></circle><circle cx="77.39" cy="55.954" r="2.645"></circle><circle cx="40.135" cy="67.085" r="2.644"></circle><circle cx="59.865" cy="67.085" r="2.645"></circle><path d="M68.407 52.289a2.644 2.644 0 1 1 2.644-4.579 2.644 2.644 0 0 1-2.644 4.579zM29.257 52.289a2.644 2.644 0 1 1 2.644-4.579 2.644 2.644 0 0 1-2.644 4.579z"></path><circle cx="59.864" cy="32.914" r="2.644"></circle><circle cx="40.135" cy="32.914" r="2.644"></circle><circle cx="34.159" cy="27.155" r="2.644"></circle><circle cx="43.854" cy="22.967" r="2.644"></circle><circle cx="65.865" cy="27.155" r="2.644"></circle><circle cx="56.17" cy="22.967" r="2.644"></circle><path d="M36.803 72.373a2.644 2.644 0 0 0-5.289 0 2.644 2.644 0 1 0 5.289 0z"></path><circle cx="43.854" cy="76.564" r="2.644"></circle><path d="M63.222 72.373a2.643 2.643 0 0 1 5.288 0 2.643 2.643 0 1 1-5.288 0z"></path><circle cx="56.17" cy="76.564" r="2.644"></circle><circle cx="41.031" cy="55.177" r="2.645"></circle><circle cx="50" cy="60.355" r="2.645"></circle><circle cx="50" cy="39.083" r="2.645"></circle><circle cx="58.968" cy="55.177" r="2.645"></circle><circle cx="58.969" cy="44.822" r="2.644"></circle><path d="M47.355 87.354a2.645 2.645 0 0 0 5.29 0h-5.29z"></path><circle cx="22.611" cy="43.93" r="2.644"></circle><path d="M86.767 57.112l-2.125-.568c.398-2.121.616-4.308.616-6.543 0-2.238-.218-4.424-.616-6.546l2.124-.57a2.645 2.645 0 0 0-1.368-5.108l-2.121.568a35.215 35.215 0 0 0-6.554-11.331l1.56-1.56a2.644 2.644 0 1 0-3.74-3.739l-1.56 1.56a35.205 35.205 0 0 0-11.33-6.552l.568-2.122a2.644 2.644 0 1 0-5.108-1.369l-.569 2.126a35.436 35.436 0 0 0-6.543-.616c-2.238 0-4.424.218-6.546.617l-.57-2.126a2.643 2.643 0 0 0-3.238-1.87 2.643 2.643 0 0 0-1.87 3.238l.569 2.123a35.23 35.23 0 0 0-11.331 6.553l-1.56-1.56a2.645 2.645 0 0 0-3.74 3.739l1.561 1.561a35.195 35.195 0 0 0-6.552 11.33l-2.122-.568a2.642 2.642 0 0 0-3.238 1.87 2.647 2.647 0 0 0 1.869 3.24l2.126.569a35.439 35.439 0 0 0-.616 6.544c0 2.236.218 4.423.616 6.545l-2.125.568a2.642 2.642 0 0 0-1.87 3.238 2.646 2.646 0 0 0 3.238 1.871l2.122-.568a35.232 35.232 0 0 0 6.553 11.329l-1.56 1.562a2.638 2.638 0 0 0 0 3.737 2.644 2.644 0 0 0 3.74.002l1.56-1.561a35.264 35.264 0 0 0 11.331 6.553l-.568 2.12a2.64 2.64 0 0 0 1.869 3.238 2.647 2.647 0 0 0 3.24-1.868l.569-2.128c2.122.4 4.307.617 6.544.617s4.424-.217 6.544-.617l.57 2.127a2.643 2.643 0 1 0 5.108-1.369l-.568-2.122a35.218 35.218 0 0 0 11.331-6.552l1.559 1.558a2.642 2.642 0 0 0 3.74.002 2.647 2.647 0 0 0 0-3.741l-1.561-1.558a35.183 35.183 0 0 0 6.554-11.332l2.121.568a2.643 2.643 0 1 0 1.367-5.109zM78.7 63.519a2.645 2.645 0 1 0-2.653 4.571c-5.263 7.556-13.723 12.721-23.406 13.524a2.644 2.644 0 0 0-1.319-2.279 2.644 2.644 0 0 0-3.965 2.28c-9.683-.804-18.143-5.969-23.406-13.524a2.642 2.642 0 1 0-2.652-4.571 31.54 31.54 0 0 1-3.032-13.518c0-4.834 1.091-9.416 3.032-13.52a2.643 2.643 0 1 0 2.651-4.572c5.264-7.556 13.724-12.72 23.406-13.522a2.642 2.642 0 0 0 5.285-.001c9.684.803 18.143 5.967 23.405 13.523a2.642 2.642 0 0 0 2.653 4.57A31.538 31.538 0 0 1 81.731 50 31.51 31.51 0 0 1 78.7 63.519z"></path><path d="M70.968 81.027a2.645 2.645 0 0 1-4.58 2.646l4.58-2.646zM83.674 66.386a2.644 2.644 0 1 1-2.644 4.582l2.644-4.582zM87.355 47.356A2.642 2.642 0 0 1 90 49.999a2.647 2.647 0 0 1-2.645 2.646v-5.289zM81.029 29.032a2.644 2.644 0 1 1 2.644 4.58l-2.644-4.58zM66.388 16.327a2.646 2.646 0 0 1 3.613-.968 2.646 2.646 0 0 1 .968 3.612l-4.581-2.644zM47.355 12.644a2.646 2.646 0 0 1 5.29 0h-5.29zM29.032 18.971a2.645 2.645 0 0 1 4.58-2.644l-4.58 2.644zM16.327 33.612a2.645 2.645 0 0 1 2.644-4.581l-2.644 4.581zM12.644 52.643A2.644 2.644 0 0 1 10 50a2.647 2.647 0 0 1 2.644-2.646v5.289zM18.97 70.968a2.644 2.644 0 0 1-3.611-.97 2.646 2.646 0 0 1 .968-3.612l2.643 4.582zM29.031 81.027A2.647 2.647 0 0 0 30 84.64a2.643 2.643 0 0 0 3.611-.966l-4.58-2.647z"></path></g><defs data-v-fde0c5aa=""><!----></defs><g data-v-fde0c5aa="" id="43c26972-de0b-4d47-b495-3ea29a49b159" fill="#000000" transform="matrix(0.3767231826205021,0,0,0.3767231826205021,125.74715664583775,169.3100005811187)"><path d="M5.11 10.57C2.86 10.57 1.60 8.93 1.60 6.85C1.60 4.76 2.86 3.12 5.11 3.12C6.64 3.12 7.64 3.85 8.12 4.98L9.23 4.98C8.64 3.29 7.13 2.10 5.03 2.10C2.24 2.10 0.55 4.21 0.55 6.85C0.55 9.48 2.24 11.59 5.03 11.59C7.13 11.59 8.64 10.40 9.23 8.71L8.12 8.71C7.64 9.84 6.64 10.57 5.11 10.57ZM20.61 4.37C18.47 4.37 17.14 5.98 17.14 7.98C17.14 9.98 18.47 11.59 20.61 11.59C22.75 11.59 24.08 9.98 24.08 7.98C24.08 5.98 22.75 4.37 20.61 4.37ZM20.61 10.64C19.05 10.64 18.19 9.42 18.19 7.98C18.19 6.54 19.05 5.32 20.61 5.32C22.16 5.32 23.03 6.54 23.03 7.98C23.03 9.42 22.16 10.64 20.61 10.64ZM36.09 4.37C34.36 4.37 33.66 5.73 33.52 6.20L33.52 4.48L32.47 4.48L32.47 11.48L33.52 11.48L33.52 8.40C33.52 6.86 34.47 5.42 36.04 5.42L36.16 5.42L36.16 4.37ZM47.15 4.37C45.01 4.37 43.68 5.98 43.68 7.98C43.68 9.98 45.01 11.59 47.15 11.59C49.29 11.59 50.62 9.98 50.62 7.98C50.62 5.98 49.29 4.37 47.15 4.37ZM47.15 10.64C45.60 10.64 44.73 9.42 44.73 7.98C44.73 6.54 45.60 5.32 47.15 5.32C48.71 5.32 49.57 6.54 49.57 7.98C49.57 9.42 48.71 10.64 47.15 10.64ZM59.01 4.48L59.01 11.48L60.06 11.48L60.06 7.45C60.06 6.19 61.01 5.32 62.17 5.32C63.32 5.32 64.13 6.16 64.13 7.43L64.13 11.48L65.18 11.48L65.18 7.41C65.18 5.42 63.83 4.37 62.38 4.37C61.25 4.37 60.56 4.90 60.06 5.57L60.06 4.48ZM76.89 4.37C74.84 4.37 73.50 5.98 73.50 7.98C73.50 9.98 74.84 11.59 76.89 11.59C78.05 11.59 78.88 11.12 79.39 10.36L79.39 11.48L80.44 11.48L80.44 4.48L79.39 4.48L79.39 5.61C78.88 4.86 78.05 4.37 76.89 4.37ZM77.03 10.64C75.47 10.64 74.55 9.42 74.55 7.98C74.55 6.54 75.47 5.32 77.03 5.32C78.58 5.32 79.45 6.54 79.45 7.98C79.45 9.42 78.58 10.64 77.03 10.64ZM93.98 4.48L91.78 10.36L89.57 4.48L88.42 4.48L91.17 11.48L92.40 11.48L95.13 4.48ZM103.11 11.48L104.16 11.48L104.16 4.48L103.11 4.48ZM103.07 1.93L103.07 3.30L104.20 3.30L104.20 1.93ZM116.61 4.37C114.87 4.37 114.17 5.73 114.03 6.20L114.03 4.48L112.98 4.48L112.98 11.48L114.03 11.48L114.03 8.40C114.03 6.86 114.98 5.42 116.55 5.42L116.68 5.42L116.68 4.37ZM130.91 11.48L130.91 4.48L129.86 4.48L129.86 8.51C129.86 9.77 128.91 10.64 127.75 10.64C126.60 10.64 125.79 9.80 125.79 8.53L125.79 4.48L124.74 4.48L124.74 8.55C124.74 10.54 126.10 11.59 127.54 11.59C128.67 11.59 129.36 11.06 129.86 10.39L129.86 11.48ZM142.17 4.37C140.36 4.37 139.43 5.11 139.43 6.37C139.43 8.93 144.09 7.84 144.09 9.59C144.09 10.54 142.87 10.70 142.30 10.70C140.94 10.70 140.41 10.00 140.34 9.28L139.24 9.28C139.31 10.51 140.34 11.59 142.28 11.59C144.02 11.59 145.14 10.85 145.14 9.49C145.14 6.86 140.48 7.95 140.48 6.27C140.48 5.59 141.05 5.26 142.14 5.26C143.32 5.26 143.77 5.75 143.85 6.36L144.91 6.36C144.79 5.33 144.02 4.37 142.17 4.37ZM167.59 2.21L163.69 2.21L163.69 11.48L167.59 11.48C169.81 11.48 171.85 9.74 171.85 6.85C171.85 3.95 169.81 2.21 167.59 2.21ZM167.55 10.49L164.74 10.49L164.74 3.21L167.55 3.21C169.53 3.21 170.80 4.86 170.80 6.85C170.80 8.83 169.53 10.49 167.55 10.49ZM183.27 4.37C181.23 4.37 179.89 5.98 179.89 7.98C179.89 9.98 181.23 11.59 183.27 11.59C184.44 11.59 185.26 11.12 185.78 10.36L185.78 11.48L186.83 11.48L186.83 4.48L185.78 4.48L185.78 5.61C185.26 4.86 184.44 4.37 183.27 4.37ZM183.41 10.64C181.86 10.64 180.94 9.42 180.94 7.98C180.94 6.54 181.86 5.32 183.41 5.32C184.97 5.32 185.84 6.54 185.84 7.98C185.84 9.42 184.97 10.64 183.41 10.64ZM197.46 11.48L197.46 5.40L199.07 5.40L199.07 4.48L197.46 4.48L197.46 1.97L196.41 1.97L196.41 4.48L194.98 4.48L194.98 5.40L196.41 5.40L196.41 11.48ZM210.03 4.37C207.98 4.37 206.64 5.98 206.64 7.98C206.64 9.98 207.98 11.59 210.03 11.59C211.19 11.59 212.02 11.12 212.53 10.36L212.53 11.48L213.58 11.48L213.58 4.48L212.53 4.48L212.53 5.61C212.02 4.86 211.19 4.37 210.03 4.37ZM210.17 10.64C208.61 10.64 207.69 9.42 207.69 7.98C207.69 6.54 208.61 5.32 210.17 5.32C211.72 5.32 212.59 6.54 212.59 7.98C212.59 9.42 211.72 10.64 210.17 10.64ZM240.41 2.21L237.15 6.61L233.83 2.21L232.61 2.21L232.61 11.48L233.66 11.48L233.66 3.81L237.15 8.22L240.58 3.81L240.58 11.48L241.63 11.48L241.63 2.21ZM253.50 4.37C251.45 4.37 250.11 5.98 250.11 7.98C250.11 9.98 251.45 11.59 253.50 11.59C254.66 11.59 255.49 11.12 256.00 10.36L256.00 11.48L257.05 11.48L257.05 4.48L256.00 4.48L256.00 5.61C255.49 4.86 254.66 4.37 253.50 4.37ZM253.64 10.64C252.08 10.64 251.16 9.42 251.16 7.98C251.16 6.54 252.08 5.32 253.64 5.32C255.19 5.32 256.06 6.54 256.06 7.98C256.06 9.42 255.19 10.64 253.64 10.64ZM268.83 4.37C266.78 4.37 265.44 5.98 265.44 7.98C265.44 9.98 266.78 11.59 268.83 11.59C269.99 11.59 270.82 11.12 271.33 10.36L271.33 11.48L272.38 11.48L272.38 1.68L271.33 1.68L271.33 5.61C270.82 4.86 269.99 4.37 268.83 4.37ZM268.97 10.64C267.41 10.64 266.49 9.42 266.49 7.98C266.49 6.54 267.41 5.32 268.97 5.32C270.52 5.32 271.39 6.54 271.39 7.98C271.39 9.42 270.52 10.64 268.97 10.64ZM284.33 10.64C282.91 10.64 282.00 9.65 281.85 8.40L287.71 8.40L287.71 7.98C287.71 5.98 286.38 4.37 284.24 4.37C282.10 4.37 280.77 5.98 280.77 7.98C280.77 9.98 282.17 11.59 284.31 11.59C285.98 11.59 287.01 10.72 287.50 9.46L286.36 9.46C285.98 10.16 285.31 10.64 284.33 10.64ZM284.24 5.32C285.59 5.32 286.43 6.23 286.62 7.42L281.86 7.42C282.06 6.23 282.90 5.32 284.24 5.32ZM313.03 3.22L313.03 2.21L306.21 2.21L306.21 11.48L313.03 11.48L313.03 10.47L307.26 10.47L307.26 7.35L312.41 7.35L312.41 6.33L307.26 6.33L307.26 3.22ZM324.24 4.37C322.20 4.37 320.85 5.98 320.85 7.98C320.85 9.98 322.20 11.59 324.24 11.59C325.40 11.59 326.23 11.12 326.75 10.36L326.75 11.48L327.80 11.48L327.80 4.48L326.75 4.48L326.75 5.61C326.23 4.86 325.40 4.37 324.24 4.37ZM324.38 10.64C322.83 10.64 321.90 9.42 321.90 7.98C321.90 6.54 322.83 5.32 324.38 5.32C325.93 5.32 326.80 6.54 326.80 7.98C326.80 9.42 325.93 10.64 324.38 10.64ZM339.05 4.37C337.25 4.37 336.31 5.11 336.31 6.37C336.31 8.93 340.97 7.84 340.97 9.59C340.97 10.54 339.75 10.70 339.18 10.70C337.82 10.70 337.29 10.00 337.22 9.28L336.13 9.28C336.20 10.51 337.22 11.59 339.16 11.59C340.90 11.59 342.02 10.85 342.02 9.49C342.02 6.86 337.36 7.95 337.36 6.27C337.36 5.59 337.93 5.26 339.02 5.26C340.20 5.26 340.65 5.75 340.73 6.36L341.80 6.36C341.67 5.33 340.90 4.37 339.05 4.37ZM356.37 4.48L355.22 4.48L352.93 10.22L350.67 4.48L349.51 4.48L352.37 11.38L351.09 14.25L352.23 14.25Z"></path></g></svg>