<svg data-v-423bf9ae="" xmlns="http://www.w3.org/2000/svg" viewBox="0 0 60.053841219660264 60" class="icon"><!----><!----><!----><!----><g data-v-423bf9ae="" id="90f633ec-a19f-42a2-ad6b-a4c6dcc73828" transform="matrix(0.7506729436560027,0,0,0.7506729436560027,-7.506728058214819,-7.559813236658535)" stroke="none" fill="white"><circle cx="41.031" cy="44.822" r="2.644"></circle><circle cx="22.611" cy="55.954" r="2.645"></circle><circle cx="77.39" cy="43.93" r="2.644"></circle><circle cx="77.39" cy="55.954" r="2.645"></circle><circle cx="40.135" cy="67.085" r="2.644"></circle><circle cx="59.865" cy="67.085" r="2.645"></circle><path d="M68.407 52.289a2.644 2.644 0 1 1 2.644-4.579 2.644 2.644 0 0 1-2.644 4.579zM29.257 52.289a2.644 2.644 0 1 1 2.644-4.579 2.644 2.644 0 0 1-2.644 4.579z"></path><circle cx="59.864" cy="32.914" r="2.644"></circle><circle cx="40.135" cy="32.914" r="2.644"></circle><circle cx="34.159" cy="27.155" r="2.644"></circle><circle cx="43.854" cy="22.967" r="2.644"></circle><circle cx="65.865" cy="27.155" r="2.644"></circle><circle cx="56.17" cy="22.967" r="2.644"></circle><path d="M36.803 72.373a2.644 2.644 0 0 0-5.289 0 2.644 2.644 0 1 0 5.289 0z"></path><circle cx="43.854" cy="76.564" r="2.644"></circle><path d="M63.222 72.373a2.643 2.643 0 0 1 5.288 0 2.643 2.643 0 1 1-5.288 0z"></path><circle cx="56.17" cy="76.564" r="2.644"></circle><circle cx="41.031" cy="55.177" r="2.645"></circle><circle cx="50" cy="60.355" r="2.645"></circle><circle cx="50" cy="39.083" r="2.645"></circle><circle cx="58.968" cy="55.177" r="2.645"></circle><circle cx="58.969" cy="44.822" r="2.644"></circle><path d="M47.355 87.354a2.645 2.645 0 0 0 5.29 0h-5.29z"></path><circle cx="22.611" cy="43.93" r="2.644"></circle><path d="M86.767 57.112l-2.125-.568c.398-2.121.616-4.308.616-6.543 0-2.238-.218-4.424-.616-6.546l2.124-.57a2.645 2.645 0 0 0-1.368-5.108l-2.121.568a35.215 35.215 0 0 0-6.554-11.331l1.56-1.56a2.644 2.644 0 1 0-3.74-3.739l-1.56 1.56a35.205 35.205 0 0 0-11.33-6.552l.568-2.122a2.644 2.644 0 1 0-5.108-1.369l-.569 2.126a35.436 35.436 0 0 0-6.543-.616c-2.238 0-4.424.218-6.546.617l-.57-2.126a2.643 2.643 0 0 0-3.238-1.87 2.643 2.643 0 0 0-1.87 3.238l.569 2.123a35.23 35.23 0 0 0-11.331 6.553l-1.56-1.56a2.645 2.645 0 0 0-3.74 3.739l1.561 1.561a35.195 35.195 0 0 0-6.552 11.33l-2.122-.568a2.642 2.642 0 0 0-3.238 1.87 2.647 2.647 0 0 0 1.869 3.24l2.126.569a35.439 35.439 0 0 0-.616 6.544c0 2.236.218 4.423.616 6.545l-2.125.568a2.642 2.642 0 0 0-1.87 3.238 2.646 2.646 0 0 0 3.238 1.871l2.122-.568a35.232 35.232 0 0 0 6.553 11.329l-1.56 1.562a2.638 2.638 0 0 0 0 3.737 2.644 2.644 0 0 0 3.74.002l1.56-1.561a35.264 35.264 0 0 0 11.331 6.553l-.568 2.12a2.64 2.64 0 0 0 1.869 3.238 2.647 2.647 0 0 0 3.24-1.868l.569-2.128c2.122.4 4.307.617 6.544.617s4.424-.217 6.544-.617l.57 2.127a2.643 2.643 0 1 0 5.108-1.369l-.568-2.122a35.218 35.218 0 0 0 11.331-6.552l1.559 1.558a2.642 2.642 0 0 0 3.74.002 2.647 2.647 0 0 0 0-3.741l-1.561-1.558a35.183 35.183 0 0 0 6.554-11.332l2.121.568a2.643 2.643 0 1 0 1.367-5.109zM78.7 63.519a2.645 2.645 0 1 0-2.653 4.571c-5.263 7.556-13.723 12.721-23.406 13.524a2.644 2.644 0 0 0-1.319-2.279 2.644 2.644 0 0 0-3.965 2.28c-9.683-.804-18.143-5.969-23.406-13.524a2.642 2.642 0 1 0-2.652-4.571 31.54 31.54 0 0 1-3.032-13.518c0-4.834 1.091-9.416 3.032-13.52a2.643 2.643 0 1 0 2.651-4.572c5.264-7.556 13.724-12.72 23.406-13.522a2.642 2.642 0 0 0 5.285-.001c9.684.803 18.143 5.967 23.405 13.523a2.642 2.642 0 0 0 2.653 4.57A31.538 31.538 0 0 1 81.731 50 31.51 31.51 0 0 1 78.7 63.519z"></path><path d="M70.968 81.027a2.645 2.645 0 0 1-4.58 2.646l4.58-2.646zM83.674 66.386a2.644 2.644 0 1 1-2.644 4.582l2.644-4.582zM87.355 47.356A2.642 2.642 0 0 1 90 49.999a2.647 2.647 0 0 1-2.645 2.646v-5.289zM81.029 29.032a2.644 2.644 0 1 1 2.644 4.58l-2.644-4.58zM66.388 16.327a2.646 2.646 0 0 1 3.613-.968 2.646 2.646 0 0 1 .968 3.612l-4.581-2.644zM47.355 12.644a2.646 2.646 0 0 1 5.29 0h-5.29zM29.032 18.971a2.645 2.645 0 0 1 4.58-2.644l-4.58 2.644zM16.327 33.612a2.645 2.645 0 0 1 2.644-4.581l-2.644 4.581zM12.644 52.643A2.644 2.644 0 0 1 10 50a2.647 2.647 0 0 1 2.644-2.646v5.289zM18.97 70.968a2.644 2.644 0 0 1-3.611-.97 2.646 2.646 0 0 1 .968-3.612l2.643 4.582zM29.031 81.027A2.647 2.647 0 0 0 30 84.64a2.643 2.643 0 0 0 3.611-.966l-4.58-2.647z"></path></g><!----></svg>